<svg width="482" height="212" viewBox="0 0 482 212" fill="none" xmlns="http://www.w3.org/2000/svg">
<path d="M58.3485 94V91.3889C61.2144 91.3889 63.5131 91.2088 65.2446 90.8487C67.0359 90.4285 68.3793 89.7382 69.2749 88.7778C70.2302 87.7573 70.8571 86.3768 71.1557 84.636C71.4542 82.8353 71.6035 80.5543 71.6035 77.7931V49.5211H28.7935V77.7931C28.7935 80.6143 28.9427 82.9253 29.2413 84.7261C29.5398 86.4668 30.1667 87.8474 31.122 88.8678C32.0774 89.8282 33.4208 90.4885 35.1523 90.8487C36.9435 91.2088 39.3019 91.3889 42.2276 91.3889V94H3V91.3889C5.92565 91.3889 8.25422 91.2088 9.98573 90.8487C11.7172 90.4885 13.0308 89.8282 13.9264 88.8678C14.822 87.8474 15.3892 86.4668 15.6281 84.7261C15.8669 82.9253 15.9863 80.6143 15.9863 77.7931V18.1877C15.9863 15.3665 15.837 13.0856 15.5385 11.3448C15.2997 9.54405 14.7324 8.13346 13.8368 7.11303C12.9412 6.09259 11.6277 5.4023 9.89617 5.04215C8.16466 4.62197 5.86594 4.41188 3 4.41188V1.98084H42.2276V4.41188C39.3616 4.41188 37.0629 4.62197 35.3314 5.04215C33.5999 5.4023 32.2266 6.09259 31.2116 7.11303C30.2563 8.13346 29.5995 9.54405 29.2413 11.3448C28.9427 13.0856 28.7935 15.3665 28.7935 18.1877V44.569H71.6035V18.1877C71.6035 15.3665 71.4542 13.0856 71.1557 11.3448C70.8571 9.54405 70.2302 8.13346 69.2749 7.11303C68.3793 6.09259 67.0359 5.4023 65.2446 5.04215C63.5131 4.62197 61.2144 4.41188 58.3485 4.41188V1.98084H97.576V4.41188C94.8892 4.41188 92.6801 4.59195 90.9486 4.95211C89.2768 5.25223 87.9632 5.8825 87.0079 6.84291C86.1123 7.74329 85.4854 9.03385 85.1271 10.7146C84.7689 12.3353 84.5897 14.4662 84.5897 17.1073V78.6935C84.5897 81.4547 84.7689 83.6756 85.1271 85.3563C85.4854 87.037 86.1123 88.3276 87.0079 89.228C87.9632 90.1283 89.2768 90.7286 90.9486 91.0287C92.6801 91.2688 94.8892 91.3889 97.576 91.3889V94H58.3485Z" fill="url(#paint0_linear_200_598)"/>
<path d="M162.508 94V91.3889C163.523 91.3889 164.567 91.3289 165.642 91.2088C166.717 91.0287 167.702 90.7286 168.598 90.3084C169.493 89.8882 170.24 89.318 170.837 88.5977C171.434 87.8174 171.732 86.7969 171.732 85.5364C171.732 84.3359 171.374 82.6552 170.658 80.4943C169.941 78.3333 169.135 76.1124 168.239 73.8314C167.344 71.5504 166.448 69.4195 165.553 67.4387C164.657 65.4579 164.03 64.0472 163.672 63.2069H128.206C127.967 63.6871 127.579 64.4974 127.041 65.6379C126.564 66.7184 125.997 67.9789 125.34 69.4195C124.683 70.8001 124.026 72.2708 123.37 73.8314C122.713 75.3921 122.086 76.9227 121.489 78.4234C120.951 79.924 120.504 81.3046 120.145 82.5651C119.787 83.8257 119.608 84.8161 119.608 85.5364C119.608 86.7369 119.996 87.7273 120.772 88.5077C121.548 89.228 122.504 89.7982 123.638 90.2184C124.773 90.6386 125.937 90.9387 127.131 91.1188C128.325 91.2388 129.37 91.3289 130.266 91.3889V94H101.427V91.3889C103.577 91.3289 105.428 90.8186 106.98 89.8582C108.532 88.8978 109.876 87.6673 111.01 86.1667C112.204 84.666 113.219 83.0153 114.055 81.2146C114.891 79.3538 115.697 77.523 116.473 75.7222L148.805 0H151.133L182.927 76.2625C183.823 78.3633 184.659 80.3142 185.435 82.1149C186.271 83.8557 187.256 85.4163 188.391 86.7969C189.525 88.1175 190.898 89.198 192.51 90.0383C194.122 90.8186 196.182 91.2688 198.69 91.3889V94H162.508ZM146.207 20.7989L130.266 58.2548H161.791L146.207 20.7989Z" fill="url(#paint1_linear_200_598)"/>
<path d="M297.744 4.41188C295.057 4.41188 292.759 4.86207 290.848 5.76245C288.937 6.66283 287.206 7.83333 285.653 9.27394C284.161 10.7146 282.787 12.3953 281.534 14.3161C280.339 16.1769 279.115 18.0977 277.862 20.0785L255.74 54.9234V77.9732C255.74 80.7944 255.889 83.0754 256.188 84.8161C256.486 86.5568 257.084 87.9374 257.979 88.9579C258.875 89.9183 260.158 90.5785 261.83 90.9387C263.562 91.2388 265.861 91.3889 268.726 91.3889V94H229.857V91.3889C232.723 91.3889 234.992 91.2088 236.664 90.8487C238.336 90.4885 239.589 89.8282 240.425 88.8678C241.321 87.8474 241.888 86.4668 242.127 84.7261C242.366 82.9853 242.485 80.7344 242.485 77.9732V56.1839L217.587 17.6475C216.632 16.1469 215.587 14.6162 214.453 13.0556C213.378 11.4949 212.184 10.0843 210.87 8.82375C209.557 7.50319 208.094 6.45274 206.482 5.67241C204.87 4.83205 203.049 4.41188 201.019 4.41188V1.98084H240.157V4.41188C239.201 4.41188 238.097 4.4719 236.843 4.59195C235.649 4.712 234.514 4.98212 233.44 5.4023C232.365 5.76245 231.469 6.36271 230.753 7.20306C230.036 7.9834 229.678 9.06386 229.678 10.4444C229.678 11.2848 230.215 12.8155 231.29 15.0364C232.425 17.2573 233.828 19.7784 235.499 22.5996C237.231 25.3608 239.082 28.272 241.052 31.3333C243.023 34.3346 244.844 37.1258 246.515 39.7069C248.247 42.228 249.71 44.3589 250.904 46.0996C252.098 47.8404 252.725 48.8008 252.785 48.9808L270.965 20.6188C271.324 20.0185 271.742 19.3282 272.219 18.5479C272.697 17.7075 273.115 16.8672 273.473 16.0268C273.891 15.1264 274.249 14.2561 274.548 13.4157C274.846 12.5153 274.996 11.705 274.996 10.9847C274.996 9.72413 274.697 8.67369 274.1 7.83333C273.503 6.99297 272.757 6.33269 271.861 5.85249C270.965 5.31226 269.98 4.95211 268.906 4.77203C267.831 4.53193 266.786 4.41188 265.771 4.41188V1.98084H297.744V4.41188Z" fill="url(#paint2_linear_200_598)"/>
<path d="M361.69 94V91.3889C362.705 91.3889 363.75 91.3289 364.825 91.2088C365.9 91.0287 366.885 90.7286 367.78 90.3084C368.676 89.8882 369.422 89.318 370.02 88.5977C370.617 87.8174 370.915 86.7969 370.915 85.5364C370.915 84.3359 370.557 82.6552 369.84 80.4943C369.124 78.3333 368.318 76.1124 367.422 73.8314C366.527 71.5504 365.631 69.4195 364.735 67.4387C363.84 65.4579 363.213 64.0472 362.855 63.2069H327.389C327.15 63.6871 326.762 64.4974 326.224 65.6379C325.747 66.7184 325.18 67.9789 324.523 69.4195C323.866 70.8001 323.209 72.2708 322.552 73.8314C321.896 75.3921 321.269 76.9227 320.672 78.4234C320.134 79.924 319.686 81.3046 319.328 82.5651C318.97 83.8257 318.791 84.8161 318.791 85.5364C318.791 86.7369 319.179 87.7273 319.955 88.5077C320.731 89.228 321.687 89.7982 322.821 90.2184C323.956 90.6386 325.12 90.9387 326.314 91.1188C327.508 91.2388 328.553 91.3289 329.449 91.3889V94H300.61V91.3889C302.759 91.3289 304.61 90.8186 306.163 89.8582C307.715 88.8978 309.059 87.6673 310.193 86.1667C311.387 84.666 312.402 83.0153 313.238 81.2146C314.074 79.3538 314.88 77.523 315.656 75.7222L347.988 0H350.316L382.11 76.2625C383.006 78.3633 383.842 80.3142 384.618 82.1149C385.454 83.8557 386.439 85.4163 387.573 86.7969C388.708 88.1175 390.081 89.198 391.693 90.0383C393.305 90.8186 395.365 91.2688 397.873 91.3889V94H361.69ZM345.39 20.7989L329.449 58.2548H360.974L345.39 20.7989Z" fill="url(#paint3_linear_200_598)"/>
<path d="M477.044 23.59C476.507 18.3678 474.925 14.4361 472.298 11.795C469.671 9.09387 465.64 7.74329 460.207 7.74329H447.4V77.9732C447.4 80.7944 447.519 83.0754 447.758 84.8161C447.997 86.5568 448.564 87.9374 449.46 88.9579C450.355 89.9183 451.639 90.5785 453.311 90.9387C455.042 91.2388 457.341 91.3889 460.207 91.3889V94H421.517V91.3889C424.383 91.3889 426.652 91.2088 428.323 90.8487C429.995 90.4885 431.279 89.8282 432.175 88.8678C433.07 87.8474 433.637 86.4668 433.876 84.7261C434.175 82.9853 434.324 80.7344 434.324 77.9732V7.74329H423.308C420.442 7.74329 417.934 8.0134 415.785 8.55363C413.636 9.03384 411.814 9.8742 410.322 11.0747C408.889 12.2752 407.754 13.8959 406.919 15.9368C406.142 17.9777 405.635 20.5287 405.396 23.59H402.261L403.157 1.98084H479.104L480 23.59H477.044Z" fill="url(#paint4_linear_200_598)"/>
<path d="M43.737 188.72C43.737 192.45 43.1271 195.706 41.9075 198.488C40.6879 201.242 38.986 203.552 36.802 205.416C34.6464 207.252 32.0794 208.629 29.1012 209.547C26.123 210.465 22.8896 210.924 19.4008 210.924H0V209.676C1.36146 209.676 2.43929 209.59 3.23347 209.418C4.05602 209.246 4.68002 208.93 5.10548 208.471C5.53094 207.984 5.81458 207.324 5.95639 206.492C6.09821 205.631 6.16912 204.527 6.16912 203.179V174.692C6.16912 173.315 6.1124 172.196 5.99894 171.336C5.88549 170.475 5.61603 169.815 5.19057 169.356C4.76512 168.869 4.14111 168.539 3.31856 168.367C2.49601 168.195 1.38983 168.109 0 168.109V166.947H17.6565C21.3154 166.947 24.7332 167.291 27.91 167.979C31.0867 168.668 33.838 169.858 36.1638 171.551C38.518 173.215 40.3617 175.438 41.6948 178.221C43.0562 181.003 43.737 184.503 43.737 188.72ZM36.5042 188.978C36.5042 186.253 36.1213 183.714 35.3555 181.362C34.618 178.981 33.4976 176.901 31.9943 175.123C30.5194 173.344 28.69 171.953 26.506 170.949C24.3503 169.916 21.8401 169.399 18.9754 169.399C17.8408 169.399 16.7205 169.486 15.6143 169.658C14.5364 169.83 13.4444 170.074 12.3382 170.389V207.74C13.3593 208.027 14.4655 208.271 15.6568 208.471C16.8481 208.644 18.011 208.73 19.1456 208.73C21.9819 208.73 24.4779 208.213 26.6336 207.181C28.7892 206.119 30.5903 204.699 32.0369 202.92C33.5118 201.113 34.618 199.019 35.3555 196.638C36.1213 194.228 36.5042 191.675 36.5042 188.978Z" fill="url(#paint5_linear_200_598)"/>
<path d="M79.0073 210.924L64.2865 190.399C63.8043 190.456 63.2938 190.485 62.7549 190.485C62.2443 190.485 61.7196 190.485 61.1807 190.485C60.9254 190.485 60.6701 190.485 60.4149 190.485C60.1596 190.456 59.9043 190.427 59.649 190.399V203.179C59.649 204.527 59.72 205.631 59.8618 206.492C60.032 207.324 60.344 207.984 60.7978 208.471C61.2516 208.93 61.8898 209.246 62.7123 209.418C63.5632 209.59 64.6694 209.676 66.0309 209.676V210.924H47.3959V209.676C48.7857 209.676 49.8919 209.59 50.7145 209.418C51.537 209.246 52.161 208.93 52.5865 208.471C53.0119 207.984 53.2814 207.324 53.3948 206.492C53.5083 205.631 53.565 204.527 53.565 203.179V174.692C53.565 173.315 53.5083 172.211 53.3948 171.379C53.2814 170.518 53.0119 169.844 52.5865 169.356C52.161 168.869 51.537 168.539 50.7145 168.367C49.8919 168.195 48.7857 168.109 47.3959 168.109V166.947H63.776C65.0523 166.947 66.3571 166.99 67.6902 167.076C69.0516 167.162 70.3706 167.348 71.6469 167.635C72.9517 167.922 74.1855 168.324 75.3484 168.84C76.5113 169.328 77.5324 170.002 78.4117 170.862C79.291 171.694 79.9859 172.713 80.4964 173.918C81.007 175.123 81.2622 176.557 81.2622 178.221C81.2622 179.885 80.9928 181.362 80.4539 182.653C79.915 183.915 79.1633 185.005 78.199 185.923C77.2629 186.813 76.1426 187.558 74.8378 188.161C73.5331 188.735 72.1291 189.179 70.6258 189.495L79.5179 202.189C80.3121 203.308 81.0779 204.297 81.8153 205.158C82.5528 206.019 83.347 206.765 84.1979 207.396C85.0488 208.027 85.9848 208.529 87.0059 208.902C88.0554 209.275 89.275 209.533 90.6648 209.676V210.924H79.0073ZM74.1146 178.737C74.1146 177.331 73.8877 176.055 73.4338 174.907C72.98 173.76 72.3277 172.785 71.4767 171.981C70.6542 171.149 69.6615 170.518 68.4985 170.088C67.364 169.629 66.1018 169.399 64.712 169.399C63.8894 169.399 63.0527 169.457 62.2018 169.572C61.3792 169.686 60.5283 169.815 59.649 169.959V188.29H61.4785C63.0385 188.29 64.5702 188.132 66.0734 187.817C67.5767 187.501 68.924 186.985 70.1153 186.268C71.3066 185.522 72.2709 184.546 73.0084 183.341C73.7458 182.108 74.1146 180.573 74.1146 178.737Z" fill="url(#paint6_linear_200_598)"/>
<path d="M124.914 210.924H91.4732V209.676C92.8347 209.676 93.9125 209.59 94.7067 209.418C95.5292 209.246 96.1532 208.93 96.5787 208.471C97.0041 207.984 97.2878 207.324 97.4296 206.492C97.5714 205.631 97.6423 204.527 97.6423 203.179V174.52C97.6423 173.143 97.5856 172.039 97.4721 171.207C97.3587 170.375 97.0892 169.729 96.6638 169.27C96.2383 168.811 95.6143 168.51 94.7918 168.367C93.9692 168.195 92.863 168.109 91.4732 168.109V166.947H124.914L125.425 176.543H124.233C123.865 175.137 123.51 173.975 123.17 173.057C122.858 172.11 122.418 171.365 121.851 170.819C121.312 170.274 120.56 169.887 119.596 169.658C118.66 169.428 117.384 169.313 115.767 169.313H103.769V186.698H113.342C114.675 186.698 115.738 186.612 116.533 186.44C117.355 186.239 118.008 185.909 118.49 185.45C119 184.962 119.369 184.317 119.596 183.514C119.851 182.682 120.064 181.62 120.234 180.329H121.425V195.691H120.234C120.064 194.4 119.851 193.339 119.596 192.507C119.369 191.675 119.014 191.015 118.532 190.528C118.05 190.011 117.398 189.653 116.575 189.452C115.781 189.251 114.703 189.151 113.342 189.151H103.769V203.609C103.769 204.412 103.783 205.129 103.811 205.761C103.868 206.363 104.01 206.879 104.237 207.31C104.464 207.711 104.818 208.027 105.301 208.256C105.811 208.457 106.52 208.558 107.428 208.558H114.746C116.646 208.558 118.206 208.4 119.426 208.084C120.645 207.769 121.695 207.267 122.574 206.578C123.482 205.89 124.29 205 124.999 203.91C125.708 202.791 126.502 201.457 127.382 199.908H128.743L124.914 210.924Z" fill="url(#paint7_linear_200_598)"/>
<path d="M159.674 210.924V209.676C160.156 209.676 160.652 209.648 161.163 209.59C161.674 209.504 162.142 209.361 162.567 209.16C162.992 208.959 163.347 208.687 163.631 208.342C163.914 207.969 164.056 207.482 164.056 206.879C164.056 206.306 163.886 205.502 163.546 204.47C163.205 203.437 162.822 202.375 162.397 201.285C161.971 200.195 161.546 199.177 161.12 198.23C160.695 197.283 160.397 196.609 160.227 196.208H143.379C143.265 196.437 143.081 196.824 142.826 197.37C142.599 197.886 142.329 198.488 142.017 199.177C141.705 199.837 141.393 200.539 141.081 201.285C140.769 202.031 140.472 202.763 140.188 203.48C139.933 204.197 139.72 204.857 139.55 205.459C139.38 206.062 139.295 206.535 139.295 206.879C139.295 207.453 139.479 207.926 139.848 208.299C140.216 208.644 140.67 208.916 141.209 209.117C141.748 209.318 142.301 209.461 142.868 209.547C143.436 209.605 143.932 209.648 144.357 209.676V210.924H130.658V209.676C131.679 209.648 132.558 209.404 133.296 208.945C134.033 208.486 134.671 207.898 135.21 207.181C135.777 206.463 136.26 205.674 136.657 204.814C137.054 203.925 137.437 203.05 137.805 202.189L153.164 166H154.271L169.374 202.447C169.8 203.451 170.197 204.384 170.566 205.244C170.963 206.076 171.431 206.822 171.97 207.482C172.509 208.113 173.161 208.629 173.927 209.031C174.693 209.404 175.671 209.619 176.862 209.676V210.924H159.674ZM151.931 175.94L144.357 193.841H159.334L151.931 175.94Z" fill="url(#paint8_linear_200_598)"/>
<path d="M215.877 210.924V209.676C217.238 209.676 218.316 209.59 219.11 209.418C219.933 209.246 220.557 208.93 220.982 208.471C221.436 207.984 221.734 207.324 221.876 206.492C222.018 205.66 222.088 204.584 222.088 203.265V173.918L205.24 210.924H204.219L187.414 173.918V203.265C187.414 204.613 187.485 205.703 187.626 206.535C187.768 207.367 188.052 208.027 188.477 208.514C188.903 208.973 189.513 209.289 190.307 209.461C191.129 209.605 192.221 209.676 193.583 209.676V210.924H178.522V209.676C179.883 209.676 180.961 209.59 181.755 209.418C182.549 209.246 183.159 208.93 183.585 208.471C184.01 207.984 184.279 207.324 184.393 206.492C184.535 205.66 184.606 204.584 184.606 203.265V174.52C184.606 173.344 184.506 172.354 184.308 171.551C184.138 170.719 183.826 170.059 183.372 169.572C182.918 169.055 182.294 168.682 181.5 168.453C180.734 168.223 179.741 168.109 178.522 168.109V166.947H190.775L206.559 201.328L222.088 166.947H234.427V168.109C233.065 168.109 231.973 168.195 231.151 168.367C230.328 168.539 229.704 168.869 229.279 169.356C228.853 169.815 228.57 170.461 228.428 171.293C228.314 172.125 228.258 173.201 228.258 174.52V203.265C228.258 204.613 228.328 205.703 228.47 206.535C228.612 207.367 228.896 208.027 229.321 208.514C229.747 208.973 230.356 209.289 231.151 209.461C231.973 209.605 233.065 209.676 234.427 209.676V210.924H215.877Z" fill="url(#paint9_linear_200_598)"/>
<path d="M283.099 210.924V209.676C284.46 209.676 285.552 209.59 286.375 209.418C287.226 209.217 287.864 208.887 288.29 208.428C288.743 207.941 289.041 207.281 289.183 206.449C289.325 205.588 289.396 204.498 289.396 203.179V189.667H269.059V203.179C269.059 204.527 269.13 205.631 269.272 206.492C269.413 207.324 269.711 207.984 270.165 208.471C270.619 208.93 271.257 209.246 272.08 209.418C272.931 209.59 274.051 209.676 275.441 209.676V210.924H256.806V209.676C258.196 209.676 259.302 209.59 260.124 209.418C260.947 209.246 261.571 208.93 261.996 208.471C262.422 207.984 262.691 207.324 262.805 206.492C262.918 205.631 262.975 204.527 262.975 203.179V174.692C262.975 173.344 262.904 172.254 262.762 171.422C262.649 170.561 262.379 169.887 261.954 169.399C261.528 168.912 260.904 168.582 260.082 168.41C259.259 168.209 258.167 168.109 256.806 168.109V166.947H275.441V168.109C274.079 168.109 272.987 168.209 272.165 168.41C271.342 168.582 270.69 168.912 270.208 169.399C269.754 169.887 269.442 170.561 269.272 171.422C269.13 172.254 269.059 173.344 269.059 174.692V187.3H289.396V174.692C289.396 173.344 289.325 172.254 289.183 171.422C289.041 170.561 288.743 169.887 288.29 169.399C287.864 168.912 287.226 168.582 286.375 168.41C285.552 168.209 284.46 168.109 283.099 168.109V166.947H301.734V168.109C300.458 168.109 299.408 168.195 298.586 168.367C297.791 168.51 297.167 168.811 296.714 169.27C296.288 169.701 295.99 170.317 295.82 171.121C295.65 171.895 295.565 172.914 295.565 174.176V203.609C295.565 204.929 295.65 205.99 295.82 206.793C295.99 207.597 296.288 208.213 296.714 208.644C297.167 209.074 297.791 209.361 298.586 209.504C299.408 209.619 300.458 209.676 301.734 209.676V210.924H283.099Z" fill="url(#paint10_linear_200_598)"/>
<path d="M347.939 188.72C347.939 191.847 347.428 194.816 346.407 197.628C345.386 200.439 343.939 202.92 342.067 205.072C340.224 207.195 337.983 208.887 335.345 210.15C332.736 211.383 329.814 212 326.581 212C323.347 212 320.411 211.383 317.774 210.15C315.164 208.916 312.923 207.252 311.051 205.158C309.208 203.035 307.79 200.568 306.797 197.757C305.804 194.945 305.308 191.962 305.308 188.806C305.308 185.622 305.833 182.653 306.882 179.899C307.96 177.116 309.463 174.707 311.392 172.67C313.321 170.604 315.618 168.983 318.284 167.807C320.95 166.602 323.886 166 327.091 166C330.24 166 333.09 166.617 335.643 167.85C338.196 169.055 340.38 170.705 342.195 172.799C344.039 174.864 345.457 177.274 346.449 180.028C347.442 182.782 347.939 185.679 347.939 188.72ZM340.621 189.151C340.621 187.544 340.536 185.909 340.365 184.245C340.224 182.581 339.954 180.975 339.557 179.426C339.16 177.877 338.621 176.428 337.94 175.08C337.26 173.731 336.395 172.555 335.345 171.551C334.296 170.547 333.033 169.758 331.558 169.184C330.112 168.582 328.396 168.281 326.41 168.281C324.595 168.281 322.993 168.582 321.603 169.184C320.241 169.758 319.05 170.547 318.029 171.551C317.008 172.555 316.157 173.731 315.476 175.08C314.795 176.428 314.242 177.862 313.817 179.383C313.42 180.874 313.136 182.423 312.966 184.03C312.796 185.608 312.711 187.143 312.711 188.634C312.711 190.097 312.796 191.632 312.966 193.239C313.136 194.845 313.434 196.423 313.859 197.972C314.285 199.521 314.838 200.998 315.519 202.404C316.199 203.81 317.05 205.043 318.071 206.105C319.093 207.166 320.298 208.012 321.688 208.644C323.078 209.275 324.68 209.59 326.496 209.59C328.396 209.59 330.055 209.303 331.473 208.73C332.92 208.156 334.168 207.381 335.217 206.406C336.267 205.402 337.132 204.24 337.813 202.92C338.522 201.572 339.075 200.152 339.472 198.66C339.897 197.14 340.195 195.577 340.365 193.97C340.536 192.335 340.621 190.728 340.621 189.151Z" fill="url(#paint11_linear_200_598)"/>
<path d="M388.953 210.924V209.676C390.314 209.676 391.392 209.59 392.186 209.418C393.009 209.246 393.633 208.93 394.058 208.471C394.512 207.984 394.81 207.324 394.952 206.492C395.093 205.66 395.164 204.584 395.164 203.265V173.918L378.316 210.924H377.295L360.49 173.918V203.265C360.49 204.613 360.56 205.703 360.702 206.535C360.844 207.367 361.128 208.027 361.553 208.514C361.979 208.973 362.588 209.289 363.383 209.461C364.205 209.605 365.297 209.676 366.659 209.676V210.924H351.597V209.676C352.959 209.676 354.037 209.59 354.831 209.418C355.625 209.246 356.235 208.93 356.66 208.471C357.086 207.984 357.355 207.324 357.469 206.492C357.611 205.66 357.681 204.584 357.681 203.265V174.52C357.681 173.344 357.582 172.354 357.384 171.551C357.213 170.719 356.902 170.059 356.448 169.572C355.994 169.055 355.37 168.682 354.576 168.453C353.81 168.223 352.817 168.109 351.597 168.109V166.947H363.851L379.635 201.328L395.164 166.947H407.503V168.109C406.141 168.109 405.049 168.195 404.226 168.367C403.404 168.539 402.78 168.869 402.354 169.356C401.929 169.815 401.645 170.461 401.504 171.293C401.39 172.125 401.333 173.201 401.333 174.52V203.265C401.333 204.613 401.404 205.703 401.546 206.535C401.688 207.367 401.972 208.027 402.397 208.514C402.822 208.973 403.432 209.289 404.226 209.461C405.049 209.605 406.141 209.676 407.503 209.676V210.924H388.953Z" fill="url(#paint12_linear_200_598)"/>
<path d="M443.751 210.924H410.31V209.676C411.672 209.676 412.75 209.59 413.544 209.418C414.367 209.246 414.991 208.93 415.416 208.471C415.841 207.984 416.125 207.324 416.267 206.492C416.409 205.631 416.48 204.527 416.48 203.179V174.52C416.48 173.143 416.423 172.039 416.309 171.207C416.196 170.375 415.927 169.729 415.501 169.27C415.076 168.811 414.452 168.51 413.629 168.367C412.806 168.195 411.7 168.109 410.31 168.109V166.947H443.751L444.262 176.543H443.071C442.702 175.137 442.347 173.975 442.007 173.057C441.695 172.11 441.255 171.365 440.688 170.819C440.149 170.274 439.398 169.887 438.433 169.658C437.497 169.428 436.221 169.313 434.604 169.313H422.606V186.698H432.179C433.512 186.698 434.576 186.612 435.37 186.44C436.192 186.239 436.845 185.909 437.327 185.45C437.838 184.962 438.206 184.317 438.433 183.514C438.688 182.682 438.901 181.62 439.071 180.329H440.263V195.691H439.071C438.901 194.4 438.688 193.339 438.433 192.507C438.206 191.675 437.852 191.015 437.37 190.528C436.887 190.011 436.235 189.653 435.412 189.452C434.618 189.251 433.54 189.151 432.179 189.151H422.606V203.609C422.606 204.412 422.62 205.129 422.649 205.761C422.705 206.363 422.847 206.879 423.074 207.31C423.301 207.711 423.656 208.027 424.138 208.256C424.648 208.457 425.357 208.558 426.265 208.558H433.583C435.483 208.558 437.043 208.4 438.263 208.084C439.483 207.769 440.532 207.267 441.411 206.578C442.319 205.89 443.127 205 443.836 203.91C444.546 202.791 445.34 201.457 446.219 199.908H447.581L443.751 210.924Z" fill="url(#paint13_linear_200_598)"/>
<path d="M482 199.65C482 201.572 481.617 203.293 480.851 204.814C480.085 206.334 479.064 207.625 477.788 208.687C476.54 209.748 475.093 210.566 473.448 211.139C471.803 211.713 470.101 212 468.343 212C467.18 212 466.017 211.857 464.854 211.57C463.691 211.312 462.585 211.025 461.536 210.709C460.514 210.394 459.578 210.107 458.728 209.848C457.877 209.562 457.182 209.418 456.643 209.418C456.302 209.418 456.005 209.504 455.749 209.676C455.522 209.82 455.324 210.021 455.154 210.279C455.012 210.537 454.898 210.809 454.813 211.096C454.757 211.412 454.7 211.713 454.643 212H453.494V196.81H454.643C454.87 198.675 455.31 200.382 455.962 201.931C456.614 203.48 457.479 204.814 458.557 205.933C459.635 207.023 460.926 207.883 462.429 208.514C463.961 209.117 465.691 209.418 467.62 209.418C468.669 209.418 469.704 209.275 470.725 208.988C471.775 208.672 472.697 208.213 473.491 207.611C474.313 207.008 474.98 206.263 475.491 205.373C476.001 204.455 476.256 203.394 476.256 202.189C476.256 200.927 475.916 199.794 475.235 198.79C474.583 197.757 473.718 196.81 472.64 195.949C471.562 195.06 470.328 194.228 468.938 193.454C467.549 192.65 466.13 191.847 464.684 191.044C463.266 190.241 461.862 189.394 460.472 188.505C459.082 187.616 457.848 186.64 456.77 185.579C455.693 184.489 454.813 183.298 454.133 182.007C453.48 180.688 453.154 179.196 453.154 177.532C453.154 175.725 453.494 174.104 454.175 172.67C454.884 171.235 455.82 170.031 456.983 169.055C458.146 168.051 459.479 167.291 460.982 166.775C462.514 166.258 464.117 166 465.79 166C466.783 166 467.761 166.129 468.726 166.387C469.719 166.645 470.654 166.932 471.534 167.248C472.441 167.535 473.264 167.807 474.001 168.065C474.739 168.324 475.349 168.453 475.831 168.453C476.171 168.453 476.455 168.367 476.682 168.195C476.909 168.022 477.107 167.822 477.277 167.592C477.448 167.334 477.575 167.061 477.66 166.775C477.774 166.488 477.859 166.229 477.916 166H479.149V181.147H477.916C477.774 179.426 477.405 177.805 476.809 176.284C476.214 174.735 475.405 173.401 474.384 172.283C473.392 171.135 472.186 170.231 470.768 169.572C469.35 168.883 467.719 168.539 465.875 168.539C464.911 168.539 463.975 168.697 463.067 169.012C462.16 169.328 461.337 169.787 460.6 170.389C459.89 170.963 459.309 171.666 458.855 172.498C458.43 173.301 458.217 174.219 458.217 175.252C458.217 176.457 458.557 177.547 459.238 178.522C459.919 179.497 460.812 180.401 461.918 181.233C463.053 182.065 464.329 182.868 465.748 183.643C467.166 184.389 468.612 185.163 470.087 185.966C471.591 186.741 473.051 187.573 474.469 188.462C475.888 189.351 477.15 190.341 478.256 191.431C479.391 192.521 480.298 193.741 480.979 195.089C481.66 196.408 482 197.929 482 199.65Z" fill="url(#paint14_linear_200_598)"/>
<defs>
<linearGradient id="paint0_linear_200_598" x1="3" y1="10.1833" x2="471.589" y2="120.369" gradientUnits="userSpaceOnUse">
<stop stop-color="#D3A756"/>
<stop offset="1" stop-color="#B48D46"/>
</linearGradient>
<linearGradient id="paint1_linear_200_598" x1="3" y1="10.1833" x2="471.589" y2="120.369" gradientUnits="userSpaceOnUse">
<stop stop-color="#D3A756"/>
<stop offset="1" stop-color="#B48D46"/>
</linearGradient>
<linearGradient id="paint2_linear_200_598" x1="3" y1="10.1833" x2="471.589" y2="120.369" gradientUnits="userSpaceOnUse">
<stop stop-color="#D3A756"/>
<stop offset="1" stop-color="#B48D46"/>
</linearGradient>
<linearGradient id="paint3_linear_200_598" x1="3" y1="10.1833" x2="471.589" y2="120.369" gradientUnits="userSpaceOnUse">
<stop stop-color="#D3A756"/>
<stop offset="1" stop-color="#B48D46"/>
</linearGradient>
<linearGradient id="paint4_linear_200_598" x1="3" y1="10.1833" x2="471.589" y2="120.369" gradientUnits="userSpaceOnUse">
<stop stop-color="#D3A756"/>
<stop offset="1" stop-color="#B48D46"/>
</linearGradient>
<linearGradient id="paint5_linear_200_598" x1="2.06992e-06" y1="170.983" x2="404.353" y2="367.316" gradientUnits="userSpaceOnUse">
<stop stop-color="#D3A756"/>
<stop offset="1" stop-color="#B48D46"/>
</linearGradient>
<linearGradient id="paint6_linear_200_598" x1="2.06992e-06" y1="170.983" x2="404.353" y2="367.316" gradientUnits="userSpaceOnUse">
<stop stop-color="#D3A756"/>
<stop offset="1" stop-color="#B48D46"/>
</linearGradient>
<linearGradient id="paint7_linear_200_598" x1="2.06992e-06" y1="170.983" x2="404.353" y2="367.316" gradientUnits="userSpaceOnUse">
<stop stop-color="#D3A756"/>
<stop offset="1" stop-color="#B48D46"/>
</linearGradient>
<linearGradient id="paint8_linear_200_598" x1="2.06992e-06" y1="170.983" x2="404.353" y2="367.316" gradientUnits="userSpaceOnUse">
<stop stop-color="#D3A756"/>
<stop offset="1" stop-color="#B48D46"/>
</linearGradient>
<linearGradient id="paint9_linear_200_598" x1="2.06992e-06" y1="170.983" x2="404.353" y2="367.316" gradientUnits="userSpaceOnUse">
<stop stop-color="#D3A756"/>
<stop offset="1" stop-color="#B48D46"/>
</linearGradient>
<linearGradient id="paint10_linear_200_598" x1="2.06992e-06" y1="170.983" x2="404.353" y2="367.316" gradientUnits="userSpaceOnUse">
<stop stop-color="#D3A756"/>
<stop offset="1" stop-color="#B48D46"/>
</linearGradient>
<linearGradient id="paint11_linear_200_598" x1="2.06992e-06" y1="170.983" x2="404.353" y2="367.316" gradientUnits="userSpaceOnUse">
<stop stop-color="#D3A756"/>
<stop offset="1" stop-color="#B48D46"/>
</linearGradient>
<linearGradient id="paint12_linear_200_598" x1="2.06992e-06" y1="170.983" x2="404.353" y2="367.316" gradientUnits="userSpaceOnUse">
<stop stop-color="#D3A756"/>
<stop offset="1" stop-color="#B48D46"/>
</linearGradient>
<linearGradient id="paint13_linear_200_598" x1="2.06992e-06" y1="170.983" x2="404.353" y2="367.316" gradientUnits="userSpaceOnUse">
<stop stop-color="#D3A756"/>
<stop offset="1" stop-color="#B48D46"/>
</linearGradient>
<linearGradient id="paint14_linear_200_598" x1="2.06992e-06" y1="170.983" x2="404.353" y2="367.316" gradientUnits="userSpaceOnUse">
<stop stop-color="#D3A756"/>
<stop offset="1" stop-color="#B48D46"/>
</linearGradient>
</defs>
</svg>
