<svg width="50" height="60" viewBox="0 0 50 60" fill="none" xmlns="http://www.w3.org/2000/svg">
<path d="M50 27.5902C50 41.1709 25 60 25 60C25 60 0 41.1709 0 27.5902C0 14.0094 11.1929 0 25 0C38.8071 0 50 14.0094 50 27.5902Z" fill="#B08B47"/>
<path d="M36.1201 32.6504C36.1784 32.6504 36.2075 32.7087 36.2075 32.8252C36.2075 32.9417 36.1784 33 36.1201 33C35.4987 33 35.0034 32.9903 34.6344 32.9709L32.537 32.9417L30.2356 32.9709C29.9055 32.9903 29.4491 33 28.8665 33C28.8082 33 28.7791 32.9417 28.7791 32.8252C28.7791 32.7087 28.8082 32.6504 28.8665 32.6504C29.6045 32.6504 30.1482 32.6019 30.4978 32.5048C30.8474 32.4077 31.0804 32.2232 31.197 31.9513C31.3135 31.66 31.3717 31.223 31.3717 30.6404V23.8528H20.768V30.6404C20.768 31.223 20.8262 31.66 20.9428 31.9513C21.0593 32.2232 21.2923 32.4077 21.6419 32.5048C21.9915 32.6019 22.5353 32.6504 23.2733 32.6504C23.3121 32.6504 23.3315 32.7087 23.3315 32.8252C23.3315 32.9417 23.3121 33 23.2733 33C22.6518 33 22.1566 32.9903 21.7876 32.9709L19.5445 32.9417L17.4762 32.9709C17.1072 32.9903 16.6022 33 15.9613 33C15.9225 33 15.9031 32.9417 15.9031 32.8252C15.9031 32.7087 15.9225 32.6504 15.9613 32.6504C16.6799 32.6504 17.2043 32.6019 17.5344 32.5048C17.884 32.4077 18.117 32.2232 18.2336 31.9513C18.3695 31.66 18.4375 31.223 18.4375 30.6404V17.1526C18.4375 16.57 18.3792 16.1427 18.2627 15.8708C18.1462 15.5989 17.9228 15.4145 17.5927 15.3173C17.2625 15.2008 16.7382 15.1426 16.0196 15.1426C15.9613 15.1426 15.9322 15.0843 15.9322 14.9678C15.9322 14.8512 15.9613 14.793 16.0196 14.793L17.5053 14.8221C18.321 14.861 19.0007 14.8804 19.5445 14.8804C20.1659 14.8804 20.9233 14.861 21.8167 14.8221L23.2733 14.793C23.3121 14.793 23.3315 14.8512 23.3315 14.9678C23.3315 15.0843 23.3121 15.1426 23.2733 15.1426C22.5547 15.1426 22.0206 15.2008 21.6711 15.3173C21.3215 15.4339 21.0787 15.6378 20.9428 15.9291C20.8262 16.201 20.768 16.6283 20.768 17.2109V23.1828H31.3717V17.2109C31.3717 16.6283 31.3038 16.201 31.1678 15.9291C31.0513 15.6378 30.8183 15.4339 30.4687 15.3173C30.1385 15.2008 29.6045 15.1426 28.8665 15.1426C28.8082 15.1426 28.7791 15.0843 28.7791 14.9678C28.7791 14.8512 28.8082 14.793 28.8665 14.793L30.2356 14.8221C31.129 14.861 31.8961 14.8804 32.537 14.8804C33.0808 14.8804 33.7799 14.861 34.6344 14.8221L36.1201 14.793C36.1784 14.793 36.2075 14.8512 36.2075 14.9678C36.2075 15.0843 36.1784 15.1426 36.1201 15.1426C35.4016 15.1426 34.8772 15.2008 34.547 15.3173C34.2169 15.4145 33.9838 15.5989 33.8479 15.8708C33.7314 16.1427 33.6731 16.57 33.6731 17.1526V30.6404C33.6731 31.223 33.7314 31.66 33.8479 31.9513C33.9838 32.2232 34.2169 32.4077 34.547 32.5048C34.8772 32.6019 35.4016 32.6504 36.1201 32.6504Z" fill="white"/>
</svg>
